<svg id="visual" viewBox="0 0 960 540" width="960" height="540" xmlns="http://www.w3.org/2000/svg" xmlns:xlink="http://www.w3.org/1999/xlink" version="1.1"><rect x="0" y="0" width="960" height="540" fill="#002233"></rect><path d="M0 433L22.8 428.8C45.7 424.7 91.3 416.3 137 418.2C182.7 420 228.3 432 274 439.5C319.7 447 365.3 450 411.2 445.7C457 441.3 503 429.7 548.8 422.5C594.7 415.3 640.3 412.7 686 400.3C731.7 388 777.3 366 823 358.5C868.7 351 914.3 358 937.2 361.5L960 365L960 541L937.2 541C914.3 541 868.7 541 823 541C777.3 541 731.7 541 686 541C640.3 541 594.7 541 548.8 541C503 541 457 541 411.2 541C365.3 541 319.7 541 274 541C228.3 541 182.7 541 137 541C91.3 541 45.7 541 22.8 541L0 541Z" fill="#0066FF" stroke-linecap="round" stroke-linejoin="miter"></path></svg>