<?xml version="1.0" standalone="no"?>
<!DOCTYPE svg PUBLIC "-//W3C//DTD SVG 20010904//EN"
 "http://www.w3.org/TR/2001/REC-SVG-20010904/DTD/svg10.dtd">
<svg version="1.0" xmlns="http://www.w3.org/2000/svg"
 width="108.000000pt" height="108.000000pt" viewBox="0 0 108.000000 108.000000"
 preserveAspectRatio="xMidYMid meet">
<metadata>
Created by potrace 1.14, written by Peter Selinger 2001-2017
</metadata>
<g transform="translate(0.000000,108.000000) scale(0.100000,-0.100000)"
fill="#000000" stroke="none">
<path d="M800 940 c0 -19 -7 -20 -120 -20 -113 0 -120 -1 -120 -20 0 -18 -7
-20 -80 -20 -73 0 -80 -2 -80 -20 0 -13 -7 -20 -20 -20 -13 0 -20 -7 -20 -20
0 -13 -7 -20 -20 -20 -13 0 -20 -7 -20 -20 0 -13 -7 -20 -20 -20 -19 0 -20 -7
-20 -120 0 -113 1 -120 20 -120 17 0 20 -7 20 -40 0 -33 -3 -40 -20 -40 -13 0
-20 -7 -20 -20 0 -13 -7 -20 -20 -20 -17 0 -20 -7 -20 -40 0 -33 -3 -40 -20
-40 -17 0 -20 -7 -20 -40 0 -33 3 -40 20 -40 13 0 20 -7 20 -20 0 -17 7 -20
40 -20 l40 0 0 -40 0 -40 100 0 c93 0 100 1 100 20 0 13 7 20 20 20 13 0 20
-7 20 -20 0 -18 7 -20 80 -20 l80 0 0 60 c0 53 2 60 20 60 13 0 20 7 20 20 0
13 7 20 20 20 17 0 20 7 20 40 0 33 -3 40 -20 40 -13 0 -20 7 -20 20 0 13 -7
20 -20 20 -17 0 -20 7 -20 40 0 33 3 40 20 40 13 0 20 7 20 20 0 13 7 20 20
20 19 0 20 7 20 120 0 113 1 120 20 120 13 0 20 7 20 20 0 13 7 20 20 20 18 0
20 7 20 80 l0 80 -40 0 c-33 0 -40 -3 -40 -20z"/>
</g>
</svg>
